<svg width="20" height="21" viewBox="0 0 20 21" fill="none" xmlns="http://www.w3.org/2000/svg">
<path d="M2.2 19.0002H6.7V11.5002H13.3V19.0002H17.8V9.30019C17.8 8.04116 17.2072 6.85561 16.2 6.1002L12.4 3.2502C10.9778 2.18353 9.02222 2.18353 7.6 3.2502L3.8 6.1002C2.79278 6.85561 2.2 8.04117 2.2 9.3002V19.0002ZM0.400002 20.8002V8.4002C0.400002 7.14117 0.992778 5.95561 2 5.2002L7.6 1.0002C9.02222 -0.0664713 10.9778 -0.0664713 12.4 1.0002L18 5.2002C19.0072 5.95561 19.6 7.14117 19.6 8.4002V20.8002H11.5V13.3002H8.5V20.8002H0.400002Z" fill="#94A4B6"/>
</svg>
