<svg width="20" height="24" viewBox="0 0 20 24" fill="none" xmlns="http://www.w3.org/2000/svg">
<path d="M0.400002 20.4V18.6H2.92V9.42C2.92 7.74 3.415 6.245 4.405 4.935C5.395 3.625 6.7 2.8 8.32 2.46V1.59C8.32 1.13 8.485 0.75 8.815 0.45C9.145 0.15 9.54 0 10 0C10.46 0 10.855 0.15 11.185 0.45C11.515 0.75 11.68 1.13 11.68 1.59V2.46C13.3 2.8 14.61 3.625 15.61 4.935C16.61 6.245 17.11 7.74 17.11 9.42V18.6H19.6V20.4H0.400002ZM10 24C9.36 24 8.8 23.765 8.32 23.295C7.84 22.825 7.6 22.26 7.6 21.6H12.4C12.4 22.26 12.165 22.825 11.695 23.295C11.225 23.765 10.66 24 10 24ZM4.72 18.6H15.31V9.42C15.31 7.94 14.8 6.68 13.78 5.64C12.76 4.6 11.51 4.08 10.03 4.08C8.55 4.08 7.295 4.6 6.265 5.64C5.235 6.68 4.72 7.94 4.72 9.42V18.6Z" fill="#94A4B6"/>
</svg>
