<svg width="24" height="24" viewBox="0 0 24 24" fill="none" xmlns="http://www.w3.org/2000/svg">
<path d="M23.2354 23.2782C22.8431 23.6547 22.2236 23.6547 21.8313 23.2782L13.7667 15.5361C13.1 16.0908 12.3222 16.5228 11.4333 16.8321C10.5444 17.1414 9.6 17.2961 8.6 17.2961C6.2 17.2961 4.16667 16.4961 2.5 14.8961C0.833333 13.2961 0 11.3654 0 9.10411C0 6.84278 0.833333 4.91211 2.5 3.31211C4.16667 1.71211 6.18889 0.912109 8.56667 0.912109C10.9222 0.912109 12.9278 1.71211 14.5833 3.31211C16.2389 4.91211 17.0667 6.84278 17.0667 9.10411C17.0667 10.0214 16.9111 10.9068 16.6 11.7601C16.2889 12.6134 15.8222 13.4134 15.2 14.1601L23.2326 21.813C23.6508 22.2114 23.652 22.8782 23.2354 23.2782ZM8.56667 15.3761C10.3667 15.3761 11.9 14.7628 13.1667 13.5361C14.4333 12.3094 15.0667 10.8321 15.0667 9.10411C15.0667 7.37611 14.4333 5.89878 13.1667 4.67211C11.9 3.44544 10.3667 2.83211 8.56667 2.83211C6.74445 2.83211 5.19444 3.44544 3.91667 4.67211C2.63889 5.89878 2 7.37611 2 9.10411C2 10.8321 2.63889 12.3094 3.91667 13.5361C5.19444 14.7628 6.74445 15.3761 8.56667 15.3761Z" fill="#94A4B6"/>
</svg>
