<svg width="20" height="20" viewBox="0 0 20 20" fill="none" xmlns="http://www.w3.org/2000/svg">
<path d="M10 20C9.40827 20 8.92857 19.5203 8.92857 18.9286V11.0714H1.07143C0.479696 11.0714 0 10.5917 0 10C0 9.40827 0.479695 8.92857 1.07143 8.92857H8.92857V1.07143C8.92857 0.479696 9.40827 0 10 0C10.5917 0 11.0714 0.479695 11.0714 1.07143V8.92857H18.9286C19.5203 8.92857 20 9.40827 20 10C20 10.5917 19.5203 11.0714 18.9286 11.0714H11.0714V18.9286C11.0714 19.5203 10.5917 20 10 20Z" fill="#94A4B6"/>
</svg>
